<svg xmlns="http://www.w3.org/2000/svg" version="1.1" xmlns:xlink="http://www.w3.org/1999/xlink" xmlns:svgjs="http://svgjs.dev/svgjs" width="1500" height="1500" viewBox="0 0 1500 1500"><rect width="1500" height="1500" fill="#ffffff"></rect><g transform="matrix(0.6666666666666666,0,0,0.6666666666666666,249.39393939393938,596.719635166802)"><svg viewBox="0 0 396 121" data-background-color="#ede1d1" preserveAspectRatio="xMidYMid meet" height="458" width="1500" xmlns="http://www.w3.org/2000/svg" xmlns:xlink="http://www.w3.org/1999/xlink"><g id="tight-bounds" transform="matrix(1,0,0,1,0.2400000000000091,0.24320134765378043)"><svg viewBox="0 0 395.52 120.51359730469244" height="120.51359730469244" width="395.52"><g><svg viewBox="0 0 589.1943848823938 179.52552294170403" height="120.51359730469244" width="395.52"><g><rect width="7.508669531953363" height="179.52552294170403" x="166.5095123872117" y="0" fill="#000000" opacity="1" stroke-width="0" stroke="transparent" fill-opacity="1" class="rect-yte-0" data-fill-palette-color="primary" rx="1%" id="yte-0" data-palette-color="#6a704c"></rect></g><g transform="matrix(1,0,0,1,193.67438488239375,0.44658090284005425)"><svg viewBox="0 0 395.52000000000004 178.63236113602392" height="178.63236113602392" width="395.52000000000004"><g id="textblocktransform"><svg viewBox="0 0 395.52000000000004 178.63236113602392" height="178.63236113602392" width="395.52000000000004" id="textblock"><g><svg viewBox="0 0 395.52000000000004 178.63236113602392" height="178.63236113602392" width="395.52000000000004"><g transform="matrix(1,0,0,1,0,0)"><svg width="395.52000000000004" viewBox="-1.2699999999999931 -35.599999999999994 196.00000000000003 83.72" height="178.63236113602392" data-palette-color="#6a704c"><svg></svg><svg></svg><g class="wordmark-text-0" data-fill-palette-color="primary" id="text-0"><path d="M23.78-12.74v0c0.033 0.613 0.05 1.23 0.05 1.85v0c0 2.673-0.39 5.13-1.17 7.37v0c-1.013 2.8-2.61 5-4.79 6.6v0c-1.333 0.973-2.717 1.687-4.15 2.14v0c-0.913 0.293-1.987 0.44-3.22 0.44v0c-0.687 0-1.437-0.047-2.25-0.14v0c-0.453-0.067-1.007-0.123-1.66-0.17-0.647-0.053-1.183-0.16-1.61-0.32v0c-0.293-0.1-0.52-0.287-0.68-0.56-0.167-0.28-0.427-0.583-0.78-0.91v0c-0.393-0.353-0.803-0.717-1.23-1.09-0.42-0.38-0.793-0.813-1.12-1.3-0.327-0.487-0.537-1.073-0.63-1.76v0c-0.067-0.193-0.1-0.403-0.1-0.63v0c0-0.52 0.097-1.107 0.29-1.76v0c0.393-0.453 0.753-0.94 1.08-1.46 0.32-0.52 0.67-1.01 1.05-1.47 0.373-0.453 0.803-0.86 1.29-1.22 0.487-0.36 1.09-0.603 1.81-0.73v0c0.387 0.553 0.58 1.04 0.58 1.46v0c0 0.2-0.03 0.38-0.09 0.54v0c-0.267 0.587-0.643 1.14-1.13 1.66-0.487 0.52-0.957 1.057-1.41 1.61v0c-0.393 0.427-0.59 0.917-0.59 1.47v0c0 0.127 0.017 0.273 0.05 0.44v0c0.067 0.387 0.19 0.703 0.37 0.95 0.173 0.24 0.383 0.467 0.63 0.68 0.247 0.213 0.5 0.427 0.76 0.64 0.26 0.207 0.487 0.473 0.68 0.8v0c1.333 0.36 2.587 0.54 3.76 0.54v0c1.007 0 1.967-0.13 2.88-0.39v0c1.953-0.553 3.607-1.523 4.96-2.91 1.347-1.38 2.363-3.113 3.05-5.2v0c0.587-1.72 0.88-3.573 0.88-5.56v0c0-0.36-0.017-0.737-0.05-1.13v0c-0.067-1.007-0.133-2.097-0.2-3.27-0.06-1.173-0.157-2.377-0.29-3.61v0c-0.1-1.367-0.213-2.743-0.34-4.13-0.133-1.38-0.28-2.607-0.44-3.68v0c-0.1-0.653-0.263-1.347-0.49-2.08-0.227-0.733-0.453-1.57-0.68-2.51v0c-0.167-0.653-0.28-1.273-0.34-1.86v0c-0.067-0.227-0.1-0.453-0.1-0.68v0c0-0.26 0.033-0.503 0.1-0.73v0c0.093-0.393 0.32-0.657 0.68-0.79v0h0.29c0.327 0 0.767 0.1 1.32 0.3v0c0.587 1.56 1.043 3.227 1.37 5 0.327 1.773 0.587 3.63 0.78 5.57 0.193 1.933 0.34 3.91 0.44 5.93 0.1 2.02 0.23 4.04 0.39 6.06zM57.42-15.82v0c0.26 1.4 0.39 2.703 0.39 3.91v0c0 1.133-0.113 2.19-0.34 3.17v0c-0.487 2.053-1.34 3.793-2.56 5.22-1.22 1.433-2.75 2.583-4.59 3.45-1.84 0.86-3.833 1.487-5.98 1.88v0c-2.187-0.067-4.183-0.343-5.99-0.83-1.807-0.493-3.393-1.26-4.76-2.3v0c-0.587-0.42-1.067-0.933-1.44-1.54-0.373-0.6-0.707-1.227-1-1.88-0.293-0.647-0.577-1.32-0.85-2.02-0.28-0.7-0.597-1.393-0.95-2.08v0c0.26-1.627 0.52-3.237 0.78-4.83 0.26-1.593 0.65-3.077 1.17-4.45v0c0.747-0.907 1.61-1.817 2.59-2.73 0.973-0.913 2.047-1.72 3.22-2.42 1.173-0.7 2.427-1.227 3.76-1.58v0c0.913-0.26 1.857-0.39 2.83-0.39v0c0.427 0 0.867 0.03 1.32 0.09v0c0.52 0.067 1.13 0.197 1.83 0.39 0.7 0.2 1.4 0.43 2.1 0.69 0.7 0.26 1.367 0.553 2 0.88 0.633 0.32 1.147 0.643 1.54 0.97v0c0.327 0.293 0.62 0.603 0.88 0.93 0.26 0.327 0.513 0.66 0.76 1 0.24 0.34 0.517 0.657 0.83 0.95 0.307 0.293 0.687 0.54 1.14 0.74v0c0.233 0.453 0.437 0.933 0.61 1.44 0.18 0.5 0.417 0.947 0.71 1.34zM54.98-8.64v0c0.1-0.587 0.15-1.173 0.15-1.76v0c0-0.453-0.017-0.927-0.05-1.42v0c-0.167-1.107-0.263-2.18-0.29-3.22v0c-0.493-0.327-0.917-0.733-1.27-1.22-0.36-0.487-0.703-0.99-1.03-1.51-0.327-0.52-0.66-1.027-1-1.52-0.34-0.487-0.757-0.91-1.25-1.27v0c-1.04-0.387-2.023-0.8-2.95-1.24-0.927-0.44-1.91-0.677-2.95-0.71v0h-0.3c-1.3 0-2.407 0.21-3.32 0.63v0c-1.007 0.46-1.967 1-2.88 1.62v0c-0.647 0.453-1.233 0.877-1.76 1.27-0.52 0.387-0.983 0.81-1.39 1.27-0.407 0.453-0.773 0.947-1.1 1.48-0.32 0.54-0.597 1.167-0.83 1.88v0c-0.293 1.24-0.44 2.413-0.44 3.52v0c0 0.813 0.083 1.593 0.25 2.34v0c0.387 1.76 1.15 3.29 2.29 4.59v0c0.687 0.36 1.403 0.743 2.15 1.15 0.747 0.407 1.537 0.767 2.37 1.08 0.833 0.307 1.687 0.523 2.56 0.65v0c0.46 0.1 0.933 0.15 1.42 0.15v0c0.42 0 0.86-0.033 1.32-0.1v0c1.107-0.16 2.23-0.467 3.37-0.92 1.14-0.46 2.18-1.03 3.12-1.71 0.947-0.687 1.76-1.453 2.44-2.3 0.687-0.847 1.143-1.757 1.37-2.73zM91.55-7.42v0c-0.16 1.727-0.573 3.183-1.24 4.37-0.667 1.187-1.53 2.197-2.59 3.03-1.06 0.827-2.263 1.527-3.61 2.1-1.353 0.567-2.78 1.093-4.28 1.58v0h-0.39c-1.46 0-2.76-0.177-3.9-0.53v0c-1.273-0.36-2.413-0.833-3.42-1.42-1.007-0.587-1.933-1.253-2.78-2-0.847-0.753-1.71-1.503-2.59-2.25v0c-0.26 0.487-0.44 1.163-0.54 2.03-0.1 0.86-0.237 1.663-0.41 2.41-0.18 0.753-0.467 1.307-0.86 1.66v0c-0.193 0.133-0.403 0.2-0.63 0.2v0c-0.36 0-0.8-0.147-1.32-0.44v0c-0.133-0.327-0.2-0.637-0.2-0.93v0-0.19c0.033-0.36 0.083-0.72 0.15-1.08 0.067-0.353 0.13-0.727 0.19-1.12v0c0.033-0.26 0.05-0.52 0.05-0.78v0-0.44c0.52-2.147 0.993-4.507 1.42-7.08 0.42-2.573 0.647-5.113 0.68-7.62v0c0-0.587-0.03-1.173-0.09-1.76-0.067-0.58-0.133-1.157-0.2-1.73-0.067-0.567-0.1-1.127-0.1-1.68v0c0-0.527 0.083-1.033 0.25-1.52v0c-0.167-0.42-0.297-0.933-0.39-1.54-0.1-0.6-0.183-1.233-0.25-1.9-0.067-0.667-0.14-1.35-0.22-2.05-0.08-0.7-0.187-1.377-0.32-2.03v0c-0.06-0.487-0.14-1.04-0.24-1.66v0c-0.1-0.353-0.15-0.693-0.15-1.02v0c0-0.2 0.017-0.38 0.05-0.54v0c0.067-0.453 0.28-0.763 0.64-0.93v0c0.093-0.033 0.207-0.05 0.34-0.05v0c0.36 0 0.863 0.147 1.51 0.44v0c0.52 2.707 0.943 5.557 1.27 8.55 0.327 2.993 0.507 5.97 0.54 8.93v0c0.52-0.52 1.017-1.09 1.49-1.71 0.473-0.613 0.96-1.223 1.46-1.83 0.507-0.6 1.047-1.177 1.62-1.73 0.567-0.553 1.207-1.027 1.92-1.42v0c0.947-0.487 1.907-0.827 2.88-1.02v0c0.62-0.1 1.257-0.15 1.91-0.15v0c0.327 0 0.667 0.017 1.02 0.05v0c0.947 0.1 1.86 0.32 2.74 0.66 0.88 0.34 1.677 0.77 2.39 1.29v0c0.913 0.653 1.777 1.517 2.59 2.59 0.813 1.073 1.513 2.27 2.1 3.59 0.587 1.32 1.027 2.727 1.32 4.22v0c0.16 1.013 0.24 2.023 0.24 3.03v0c0 0.487-0.017 0.96-0.05 1.42zM87.65-3.86v0c0.647-1.627 0.97-3.27 0.97-4.93v0-0.39c-0.06-1.76-0.383-3.42-0.97-4.98-0.587-1.56-1.387-2.96-2.4-4.2-1.007-1.233-2.113-2.21-3.32-2.93v0c-0.747-0.193-1.447-0.29-2.1-0.29v0c-0.42 0-0.81 0.033-1.17 0.1v0c-1.007 0.193-1.917 0.51-2.73 0.95-0.813 0.44-1.57 0.96-2.27 1.56-0.7 0.6-1.36 1.177-1.98 1.73v0c-0.36 0.753-0.8 1.463-1.32 2.13-0.52 0.667-1 1.357-1.44 2.07-0.44 0.72-0.757 1.47-0.95 2.25v0c-0.1 0.36-0.15 0.717-0.15 1.07v0c0 0.52 0.083 1.057 0.25 1.61v0c-0.167 0.393-0.25 0.787-0.25 1.18v0c0 0.033 0.017 0.063 0.05 0.09v0c0 0.427 0.073 0.833 0.22 1.22 0.147 0.393 0.333 0.753 0.56 1.08 0.227 0.327 0.47 0.62 0.73 0.88v0c0.427 0.42 0.933 0.843 1.52 1.27 0.587 0.42 1.18 0.827 1.78 1.22 0.6 0.387 1.203 0.743 1.81 1.07 0.6 0.327 1.127 0.603 1.58 0.83v0c0.587 0.1 1.157 0.15 1.71 0.15v0c0.553 0 1.107-0.05 1.66-0.15v0c1.107-0.193 2.167-0.517 3.18-0.97 1.007-0.46 1.933-1.007 2.78-1.64 0.847-0.633 1.597-1.293 2.25-1.98z" fill="#000000" fill-rule="nonzero" stroke="none" stroke-width="1" stroke-linecap="butt" stroke-linejoin="miter" stroke-miterlimit="10" stroke-dasharray="" stroke-dashoffset="0" font-family="none" font-weight="none" font-size="none" text-anchor="none" style="mix-blend-mode: normal" data-fill-palette-color="primary" opacity="1"></path><path transform="translate(0,44.26)" d="M29.49-30.86v0c-0.26 0.16-0.537 0.24-0.83 0.24v0c-0.26 0-0.503-0.047-0.73-0.14v0c-0.62-0.193-1.253-0.323-1.9-0.39v0c-0.62-0.067-1.257-0.1-1.91-0.1v0c-0.713 0-1.447 0.033-2.2 0.1v0c-1.427 0.16-2.71 0.323-3.85 0.49v0c-0.2 0.873-0.3 1.733-0.3 2.58v0c0 0.067 0.017 0.133 0.05 0.2v0c0 0.947 0.033 1.89 0.1 2.83 0.067 0.947 0.157 1.907 0.27 2.88 0.113 0.98 0.17 1.957 0.17 2.93v0c0.033 1.727 0.05 3.47 0.05 5.23v0c0 1.753 0.023 3.51 0.07 5.27 0.047 1.76 0.137 3.5 0.27 5.22 0.133 1.727 0.33 3.387 0.59 4.98v0c-0.133 0.267-0.313 0.497-0.54 0.69-0.227 0.193-0.487 0.34-0.78 0.44v0c-0.227 0.067-0.44 0.1-0.64 0.1v0h-0.24c-0.293-0.033-0.587-0.167-0.88-0.4v0c-0.16-2.667-0.283-5.423-0.37-8.27-0.08-2.847-0.153-5.67-0.22-8.47-0.06-2.8-0.157-5.52-0.29-8.16-0.127-2.633-0.323-5.107-0.59-7.42v0c-1.367 0.033-2.683 0.26-3.95 0.68-1.267 0.427-2.513 0.933-3.74 1.52-1.22 0.587-2.43 1.187-3.63 1.8-1.207 0.62-2.443 1.143-3.71 1.57v0c-0.36-0.26-0.623-0.553-0.79-0.88v0c-0.16-0.227-0.24-0.487-0.24-0.78v0c0-0.133 0.017-0.247 0.05-0.34v0c0.067-0.267 0.19-0.463 0.37-0.59 0.173-0.133 0.39-0.247 0.65-0.34 0.267-0.1 0.553-0.183 0.86-0.25 0.307-0.06 0.607-0.157 0.9-0.29v0c0.46-0.193 0.967-0.437 1.52-0.73 0.553-0.293 1.097-0.597 1.63-0.91 0.54-0.307 1.037-0.59 1.49-0.85 0.453-0.26 0.813-0.457 1.08-0.59v0c1.853-0.58 4.08-1.133 6.68-1.66 2.607-0.52 5.277-0.893 8.01-1.12v0c0.427-0.033 0.963-0.067 1.61-0.1v0c0.427-0.033 0.867-0.05 1.32-0.05v0h0.69c0.68 0.033 1.347 0.107 2 0.22 0.647 0.12 1.173 0.293 1.58 0.52 0.413 0.227 0.667 0.52 0.76 0.88v0c0.033 0.093 0.05 0.173 0.05 0.24v0c0 0.36-0.163 0.767-0.49 1.22zM52.88-20.07v0c-0.553 0.293-1.01 0.44-1.37 0.44v0c-0.127 0-0.223-0.033-0.29-0.1v0c-0.36-0.127-0.613-0.387-0.76-0.78-0.147-0.387-0.267-0.833-0.36-1.34-0.1-0.507-0.33-0.907-0.69-1.2v0c-0.26-0.227-0.493-0.363-0.7-0.41-0.213-0.053-0.417-0.087-0.61-0.1-0.2-0.013-0.42-0.03-0.66-0.05-0.247-0.013-0.55-0.103-0.91-0.27v0c-0.78 0.327-1.593 0.613-2.44 0.86-0.847 0.24-1.66 0.517-2.44 0.83-0.78 0.307-1.503 0.663-2.17 1.07-0.667 0.407-1.197 0.92-1.59 1.54v0c0.133 1.82 0.337 3.593 0.61 5.32 0.28 1.727 0.517 3.427 0.71 5.1 0.193 1.68 0.323 3.383 0.39 5.11v0 0.73c0 1.5-0.13 3.03-0.39 4.59v0c-0.327 0.52-0.767 0.933-1.32 1.24-0.553 0.313-1.14 0.617-1.76 0.91v0c-1.167-0.067-2.053-0.393-2.66-0.98-0.6-0.587-1.047-1.293-1.34-2.12-0.293-0.833-0.507-1.703-0.64-2.61-0.127-0.913-0.303-1.747-0.53-2.5v0c0.26-1.167 0.423-2.387 0.49-3.66 0.06-1.267 0.163-2.493 0.31-3.68 0.147-1.193 0.423-2.293 0.83-3.3 0.407-1.007 1.083-1.837 2.03-2.49v0c0.127-0.327 0.19-0.67 0.19-1.03v0c0-0.193-0.013-0.403-0.04-0.63v0c-0.133-0.587-0.323-1.18-0.57-1.78-0.24-0.607-0.49-1.187-0.75-1.74-0.26-0.553-0.423-1.09-0.49-1.61v0c-0.033-0.127-0.05-0.257-0.05-0.39v0c0-0.353 0.067-0.663 0.2-0.93v0c0.193-0.387 0.63-0.693 1.31-0.92v0c0.36 0.227 0.647 0.503 0.86 0.83 0.213 0.327 0.407 0.683 0.58 1.07 0.18 0.393 0.343 0.793 0.49 1.2 0.147 0.407 0.333 0.787 0.56 1.14v0c1.08-0.32 2.18-0.75 3.3-1.29 1.12-0.533 2.463-0.98 4.03-1.34v0c0.42-0.1 0.827-0.247 1.22-0.44 0.387-0.193 0.743-0.323 1.07-0.39v0c0.327-0.033 0.637-0.05 0.93-0.05v0c0.687 0 1.353 0.063 2 0.19v0c0.947 0.233 1.737 0.61 2.37 1.13 0.633 0.52 1.067 1.187 1.3 2v0c0.093 0.293 0.14 0.603 0.14 0.93v0c0 0.587-0.13 1.22-0.39 1.9zM36.13 0.63v0c0.26-1.073 0.407-2.277 0.44-3.61v0-0.78c0-1.073-0.047-2.163-0.14-3.27v0c-0.133-1.4-0.313-2.777-0.54-4.13-0.227-1.347-0.47-2.573-0.73-3.68v0c-0.393 1.007-0.737 2.243-1.03 3.71-0.293 1.46-0.44 2.94-0.44 4.44v0c0 1.5 0.18 2.917 0.54 4.25 0.36 1.333 0.993 2.357 1.9 3.07zM85.6-1.17v0c-0.1 0.387-0.217 0.743-0.35 1.07-0.127 0.327-0.337 0.557-0.63 0.69v0c-0.16 0.06-0.357 0.09-0.59 0.09v0c-0.16 0-0.323-0.017-0.49-0.05v0c-0.453-0.06-0.923-0.19-1.41-0.39-0.487-0.193-0.95-0.42-1.39-0.68-0.44-0.26-0.773-0.503-1-0.73v0c-0.46-0.427-0.827-0.917-1.1-1.47-0.28-0.553-0.533-1.113-0.76-1.68-0.227-0.573-0.43-1.103-0.61-1.59-0.18-0.487-0.4-0.877-0.66-1.17v0c-0.36 0.16-0.653 0.37-0.88 0.63-0.227 0.267-0.447 0.56-0.66 0.88-0.207 0.327-0.417 0.66-0.63 1-0.213 0.347-0.467 0.65-0.76 0.91v0c-0.68 0.68-1.5 1.29-2.46 1.83-0.96 0.533-1.993 0.947-3.1 1.24v0c-0.947 0.26-1.923 0.39-2.93 0.39v0c-0.167 0-0.33-0.013-0.49-0.04v0c-1.173-0.033-2.313-0.297-3.42-0.79v0c-1.14-0.78-2.173-1.77-3.1-2.97-0.927-1.207-1.667-2.543-2.22-4.01-0.553-1.467-0.863-3.03-0.93-4.69v0c-0.033-0.193-0.05-0.387-0.05-0.58v0c0-1.433 0.26-2.9 0.78-4.4v0c0.193-0.52 0.463-1.097 0.81-1.73 0.34-0.633 0.72-1.243 1.14-1.83 0.427-0.587 0.877-1.123 1.35-1.61 0.473-0.487 0.937-0.877 1.39-1.17v0c1.173-0.72 2.46-1.193 3.86-1.42v0c0.747-0.1 1.493-0.15 2.24-0.15v0c0.62 0 1.257 0.033 1.91 0.1v0c1.4 0.193 2.757 0.56 4.07 1.1 1.32 0.54 2.517 1.2 3.59 1.98v0c0.293-0.293 0.66-0.61 1.1-0.95 0.44-0.347 0.903-0.633 1.39-0.86v0c0.427-0.16 0.85-0.24 1.27-0.24v0h0.25c0.487 0.033 0.957 0.277 1.41 0.73v0c0.26 1.007 0.39 2 0.39 2.98v0 0.73c-0.093 1.207-0.303 2.37-0.63 3.49-0.327 1.127-0.727 2.193-1.2 3.2-0.473 1.007-0.92 1.95-1.34 2.83v0c0.487 1.533 1.033 3 1.64 4.4 0.6 1.4 1.403 2.603 2.41 3.61v0h0.54c0.52 0 0.91 0.067 1.17 0.2v0c0.36 0.227 0.72 0.6 1.08 1.12zM79.1-21.29v0c-0.647 0.947-1.003 1.99-1.07 3.13v0 0.78c0 0.907 0.08 1.9 0.24 2.98v0c0.193-0.393 0.423-0.907 0.69-1.54 0.26-0.633 0.47-1.293 0.63-1.98v0c0.1-0.553 0.15-1.09 0.15-1.61v0-0.34c-0.033-0.587-0.247-1.06-0.64-1.42zM75.83-10.84v0c-0.133-1.333-0.263-2.733-0.39-4.2v0c-0.1-0.847-0.15-1.677-0.15-2.49v0c0-0.553 0.017-1.09 0.05-1.61v0c-0.42-0.653-0.99-1.24-1.71-1.76-0.713-0.52-1.493-0.943-2.34-1.27-0.847-0.327-1.743-0.553-2.69-0.68v0c-0.553-0.067-1.073-0.1-1.56-0.1v0c-0.387 0-0.777 0.017-1.17 0.05v0c-1.14 0.127-2.133 0.397-2.98 0.81-0.847 0.407-1.597 0.9-2.25 1.48v0c-0.353 0.653-0.743 1.37-1.17 2.15-0.42 0.78-0.787 1.61-1.1 2.49-0.307 0.88-0.527 1.793-0.66 2.74v0c-0.027 0.353-0.04 0.693-0.04 1.02v0c0 0.62 0.063 1.24 0.19 1.86v0c0.133 0.52 0.337 1.097 0.61 1.73 0.28 0.633 0.607 1.26 0.98 1.88 0.373 0.62 0.78 1.19 1.22 1.71 0.44 0.52 0.87 0.927 1.29 1.22v0c0.653 0.453 1.42 0.747 2.3 0.88v0c0.553 0.1 1.14 0.15 1.76 0.15v0c0.32 0 0.643-0.017 0.97-0.05v0c1.073-0.327 2.017-0.783 2.83-1.37 0.813-0.587 1.563-1.237 2.25-1.95 0.687-0.72 1.33-1.487 1.93-2.3 0.6-0.813 1.21-1.61 1.83-2.39zM115.14-17.68v0c-0.62-0.06-1.11-0.213-1.47-0.46-0.36-0.247-0.67-0.523-0.93-0.83-0.26-0.307-0.503-0.623-0.73-0.95-0.227-0.327-0.537-0.603-0.93-0.83v0c-0.747-0.46-1.64-0.877-2.68-1.25-1.04-0.373-2.14-0.667-3.3-0.88-1.153-0.207-2.317-0.31-3.49-0.31v0c-1.207 0-2.347 0.147-3.42 0.44v0c-0.747 0.227-1.487 0.583-2.22 1.07-0.733 0.487-1.407 1.063-2.02 1.73-0.62 0.667-1.167 1.383-1.64 2.15-0.473 0.767-0.807 1.523-1 2.27v0c-0.36 1.273-0.54 2.527-0.54 3.76v0c0 0.427 0.033 0.833 0.1 1.22v0c0.127 1.66 0.517 3.2 1.17 4.62 0.653 1.413 1.54 2.627 2.66 3.64 1.127 1.007 2.453 1.703 3.98 2.09v0c1.073 0.267 2.147 0.4 3.22 0.4v0c0.1 0.027 0.183 0.04 0.25 0.04v0c0.973 0 1.933-0.097 2.88-0.29v0c0.973-0.193 1.893-0.477 2.76-0.85 0.86-0.373 1.633-0.79 2.32-1.25v0c0.16-0.127 0.323-0.297 0.49-0.51 0.16-0.213 0.33-0.417 0.51-0.61 0.18-0.193 0.383-0.357 0.61-0.49 0.227-0.133 0.503-0.2 0.83-0.2v0c0.553 0.033 0.977 0.263 1.27 0.69v0c0.193 0.26 0.29 0.587 0.29 0.98v0c0 0.193-0.033 0.403-0.1 0.63v0c-0.06 0.16-0.22 0.34-0.48 0.54-0.267 0.193-0.553 0.397-0.86 0.61-0.307 0.207-0.617 0.4-0.93 0.58-0.307 0.18-0.527 0.303-0.66 0.37v0c-0.353 0.193-0.79 0.33-1.31 0.41-0.527 0.087-1.017 0.227-1.47 0.42v0c-0.453 0.193-0.843 0.38-1.17 0.56-0.327 0.18-0.66 0.36-1 0.54-0.34 0.18-0.7 0.333-1.08 0.46-0.373 0.133-0.82 0.217-1.34 0.25v0c-0.42 0.033-0.86 0.05-1.32 0.05v0c-1.56 0-3.09-0.247-4.59-0.74v0c-1.887-0.587-3.497-1.4-4.83-2.44v0c-0.227-0.16-0.423-0.397-0.59-0.71-0.16-0.307-0.353-0.557-0.58-0.75v0c-0.46-0.427-0.917-0.803-1.37-1.13-0.453-0.327-0.81-0.813-1.07-1.46v0c-0.327-0.78-0.573-1.667-0.74-2.66-0.16-0.993-0.29-1.913-0.39-2.76v0c-0.093-0.747-0.14-1.48-0.14-2.2v0c0-1.493 0.21-2.94 0.63-4.34v0c0.62-2.02 1.533-3.747 2.74-5.18v0c0.26-0.26 0.567-0.497 0.92-0.71 0.36-0.213 0.72-0.48 1.08-0.8v0c0.353-0.327 0.637-0.66 0.85-1 0.213-0.347 0.467-0.6 0.76-0.76v0c0.193-0.1 0.493-0.23 0.9-0.39 0.407-0.167 0.847-0.323 1.32-0.47 0.473-0.147 0.947-0.277 1.42-0.39 0.467-0.113 0.88-0.187 1.24-0.22v0c0.72-0.093 1.387-0.14 2-0.14v0c0.72 0 1.39 0.047 2.01 0.14v0c1.2 0.233 2.37 0.56 3.51 0.98v0c0.687 0.227 1.307 0.447 1.86 0.66 0.553 0.213 1.073 0.44 1.56 0.68 0.487 0.247 0.967 0.523 1.44 0.83 0.473 0.313 0.97 0.68 1.49 1.1v0c0.36 0.293 0.75 0.61 1.17 0.95 0.427 0.347 0.753 0.697 0.98 1.05v0c0.16 0.293 0.24 0.57 0.24 0.83v0 0.25c-0.1 0.353-0.457 0.677-1.07 0.97zM139.4 1.56v0c-0.093 0.46-0.19 0.893-0.29 1.3-0.1 0.407-0.28 0.74-0.54 1v0c-1.687-0.487-3.143-1.22-4.37-2.2-1.22-0.973-2.333-2.047-3.34-3.22-1.007-1.173-1.983-2.387-2.93-3.64-0.947-1.253-1.973-2.417-3.08-3.49v0c-0.32 0.78-0.547 1.667-0.68 2.66-0.133 0.993-0.23 2.01-0.29 3.05-0.067 1.04-0.14 2.083-0.22 3.13-0.08 1.04-0.22 2-0.42 2.88v0c-0.453 0.293-0.843 0.44-1.17 0.44v0c-0.327 0-0.75-0.033-1.27-0.1v0c-0.227-0.327-0.357-0.653-0.39-0.98v0-0.39c0-0.193 0.017-0.403 0.05-0.63v0c0.033-0.327 0.107-0.66 0.22-1 0.113-0.347 0.203-0.713 0.27-1.1v0c0.293-1.533 0.503-3.227 0.63-5.08 0.133-1.853 0.217-3.773 0.25-5.76v0-1.17c0-1.6-0.033-3.197-0.1-4.79v0c-0.067-1.953-0.163-3.81-0.29-5.57v0c-0.1-1.133-0.257-2.23-0.47-3.29-0.213-1.06-0.44-2.12-0.68-3.18-0.247-1.053-0.483-2.117-0.71-3.19-0.227-1.08-0.423-2.203-0.59-3.37v0c0.26-0.26 0.587-0.507 0.98-0.74v0c0.16-0.06 0.34-0.09 0.54-0.09v0c0.26 0 0.52 0.063 0.78 0.19v0c0.68 1.727 1.223 3.55 1.63 5.47 0.413 1.92 0.723 3.897 0.93 5.93 0.213 2.04 0.36 4.117 0.44 6.23 0.08 2.113 0.153 4.23 0.22 6.35v0c0.687-0.293 1.38-0.727 2.08-1.3 0.7-0.567 1.4-1.21 2.1-1.93 0.7-0.713 1.373-1.46 2.02-2.24 0.653-0.78 1.257-1.513 1.81-2.2v0c0.127-0.193 0.33-0.437 0.61-0.73 0.273-0.293 0.583-0.58 0.93-0.86 0.34-0.273 0.69-0.517 1.05-0.73 0.353-0.213 0.693-0.32 1.02-0.32v0c0.46 0.033 0.837 0.18 1.13 0.44v0c0.227 0.233 0.34 0.543 0.34 0.93v0 0.29c-0.033 0.267-0.123 0.487-0.27 0.66-0.147 0.18-0.317 0.327-0.51 0.44-0.2 0.113-0.403 0.227-0.61 0.34-0.213 0.12-0.403 0.243-0.57 0.37v0c-0.613 0.553-1.24 1.203-1.88 1.95-0.633 0.753-1.3 1.52-2 2.3-0.7 0.78-1.417 1.537-2.15 2.27-0.727 0.733-1.5 1.327-2.32 1.78v0c1.14 1.987 2.42 3.81 3.84 5.47 1.413 1.66 2.853 3.32 4.32 4.98v0c0.847 0.26 1.547 0.633 2.1 1.12 0.553 0.493 1.17 0.933 1.85 1.32zM166.36-4.64v0c-0.227 0.913-0.667 1.727-1.32 2.44-0.653 0.72-1.303 1.323-1.95 1.81v0c-0.587 0.453-1.257 0.793-2.01 1.02-0.747 0.233-1.447 0.543-2.1 0.93v0c-1.233 0.067-2.403 0.123-3.51 0.17-1.107 0.053-2.213 0.11-3.32 0.17v0c-1.4-0.353-2.693-0.863-3.88-1.53-1.193-0.667-2.243-1.523-3.15-2.57v0c-0.427-0.487-0.883-1.153-1.37-2-0.487-0.847-0.91-1.783-1.27-2.81-0.36-1.02-0.62-2.087-0.78-3.2v0c-0.067-0.387-0.1-0.793-0.1-1.22v0c0-0.647 0.083-1.263 0.25-1.85v0c0.06-0.293 0.253-0.637 0.58-1.03 0.327-0.387 0.62-0.857 0.88-1.41v0c0.847-1.66 1.783-3.11 2.81-4.35 1.027-1.233 2.337-2.227 3.93-2.98v0c1.007-0.487 2.227-0.843 3.66-1.07v0c0.947-0.133 1.89-0.2 2.83-0.2v0c0.52 0 1.043 0.017 1.57 0.05v0c1.46 0.133 2.85 0.443 4.17 0.93 1.32 0.487 2.353 1.17 3.1 2.05v0c0.487 0.587 0.887 1.263 1.2 2.03 0.307 0.76 0.493 1.55 0.56 2.37v0 0.53c0 0.62-0.083 1.223-0.25 1.81v0c-0.227 0.747-0.633 1.397-1.22 1.95v0c-0.747 0.72-1.663 1.363-2.75 1.93-1.093 0.573-2.267 1.047-3.52 1.42-1.253 0.373-2.563 0.623-3.93 0.75v0c-0.653 0.1-1.29 0.15-1.91 0.15v0c-0.713 0-1.397-0.05-2.05-0.15v0c-1.3-0.16-2.51-0.493-3.63-1-1.127-0.5-2.097-1.207-2.91-2.12v0c-0.033 0.36-0.05 0.7-0.05 1.02v0c0 0.847 0.113 1.693 0.34 2.54v0c0.327 1.207 0.817 2.297 1.47 3.27 0.653 0.98 1.46 1.803 2.42 2.47 0.96 0.667 2.007 1.097 3.14 1.29v0c0.687 0.133 1.42 0.2 2.2 0.2v0c0.1 0 0.2-0.017 0.3-0.05v0c0.84 0 1.677-0.073 2.51-0.22 0.827-0.147 1.617-0.367 2.37-0.66 0.747-0.293 1.397-0.65 1.95-1.07v0c0.487-0.36 0.887-0.8 1.2-1.32 0.307-0.52 0.72-1.01 1.24-1.47v0c0.167-0.027 0.33-0.04 0.49-0.04v0c0.427 0 0.77 0.063 1.03 0.19v0c0.32 0.193 0.58 0.47 0.78 0.83zM164.4-16.41v-0.29c-0.06-0.62-0.263-1.133-0.61-1.54-0.34-0.407-0.623-0.933-0.85-1.58v0c-0.653-0.62-1.483-1.06-2.49-1.32-1.007-0.26-2.063-0.39-3.17-0.39v0c-1.14 0-2.29 0.09-3.45 0.27-1.153 0.173-2.203 0.39-3.15 0.65v0c-0.94 0.787-1.817 1.627-2.63 2.52-0.813 0.893-1.467 1.96-1.96 3.2v0c0.553 0.973 1.253 1.73 2.1 2.27 0.847 0.533 1.807 0.917 2.88 1.15v0c1.013 0.227 2.09 0.34 3.23 0.34v0c0.06 0 0.14-0.017 0.24-0.05v0c1.24 0 2.51-0.05 3.81-0.15v0c0.52-0.36 1.147-0.7 1.88-1.02 0.733-0.327 1.417-0.693 2.05-1.1 0.633-0.407 1.163-0.87 1.59-1.39v0c0.353-0.46 0.53-0.983 0.53-1.57zM194.34-20.07v0c-0.553 0.293-1.01 0.44-1.37 0.44v0c-0.133 0-0.23-0.033-0.29-0.1v0c-0.36-0.127-0.613-0.387-0.76-0.78-0.147-0.387-0.27-0.833-0.37-1.34-0.093-0.507-0.32-0.907-0.68-1.2v0c-0.26-0.227-0.497-0.363-0.71-0.41-0.213-0.053-0.417-0.087-0.61-0.1-0.193-0.013-0.413-0.03-0.66-0.05-0.24-0.013-0.54-0.103-0.9-0.27v0c-0.78 0.327-1.593 0.613-2.44 0.86-0.847 0.24-1.66 0.517-2.44 0.83-0.787 0.307-1.513 0.663-2.18 1.07-0.667 0.407-1.193 0.92-1.58 1.54v0c0.127 1.82 0.33 3.593 0.61 5.32 0.273 1.727 0.507 3.427 0.7 5.1 0.2 1.68 0.33 3.383 0.39 5.11v0 0.73c0 1.5-0.13 3.03-0.39 4.59v0c-0.32 0.52-0.757 0.933-1.31 1.24-0.553 0.313-1.14 0.617-1.76 0.91v0c-1.173-0.067-2.06-0.393-2.66-0.98-0.607-0.587-1.057-1.293-1.35-2.12-0.293-0.833-0.503-1.703-0.63-2.61-0.133-0.913-0.313-1.747-0.54-2.5v0c0.26-1.167 0.423-2.387 0.49-3.66 0.067-1.267 0.173-2.493 0.32-3.68 0.147-1.193 0.423-2.293 0.83-3.3 0.407-1.007 1.08-1.837 2.02-2.49v0c0.133-0.327 0.2-0.67 0.2-1.03v0c0-0.193-0.017-0.403-0.05-0.63v0c-0.127-0.587-0.313-1.18-0.56-1.78-0.247-0.607-0.5-1.187-0.76-1.74-0.26-0.553-0.423-1.09-0.49-1.61v0c-0.027-0.127-0.04-0.257-0.04-0.39v0c0-0.353 0.063-0.663 0.19-0.93v0c0.193-0.387 0.633-0.693 1.32-0.92v0c0.36 0.227 0.643 0.503 0.85 0.83 0.213 0.327 0.41 0.683 0.59 1.07 0.18 0.393 0.343 0.793 0.49 1.2 0.147 0.407 0.333 0.787 0.56 1.14v0c1.073-0.32 2.173-0.75 3.3-1.29 1.12-0.533 2.46-0.98 4.02-1.34v0c0.427-0.1 0.833-0.247 1.22-0.44 0.393-0.193 0.753-0.323 1.08-0.39v0c0.327-0.033 0.637-0.05 0.93-0.05v0c0.68 0 1.347 0.063 2 0.19v0c0.94 0.233 1.73 0.61 2.37 1.13 0.633 0.52 1.063 1.187 1.29 2v0c0.1 0.293 0.15 0.603 0.15 0.93v0c0 0.587-0.13 1.22-0.39 1.9zM177.59 0.63v0c0.26-1.073 0.407-2.277 0.44-3.61v0-0.78c0-1.073-0.05-2.163-0.15-3.27v0c-0.127-1.4-0.307-2.777-0.54-4.13-0.227-1.347-0.47-2.573-0.73-3.68v0c-0.387 1.007-0.727 2.243-1.02 3.71-0.293 1.46-0.44 2.94-0.44 4.44v0c0 1.5 0.177 2.917 0.53 4.25 0.36 1.333 0.997 2.357 1.91 3.07z" fill="#000000" fill-rule="nonzero" stroke="none" stroke-width="1" stroke-linecap="butt" stroke-linejoin="miter" stroke-miterlimit="10" stroke-dasharray="" stroke-dashoffset="0" font-family="none" font-weight="none" font-size="none" text-anchor="none" style="mix-blend-mode: normal" data-fill-palette-color="primary" opacity="1"></path></g></svg></g></svg></g></svg></g></svg></g><g transform="matrix(1,0,0,1,0,0.44658090284005425)"><svg viewBox="0 0 146.85330942398298 178.63236113602392" height="178.63236113602392" width="146.85330942398298"><g><svg xmlns="http://www.w3.org/2000/svg" xmlns:xlink="http://www.w3.org/1999/xlink" version="1.1" x="0" y="0" viewBox="217.922 209.68462750634032 76.15700000000001 92.63737249365968" enable-background="new 206 206 100 100" xml:space="preserve" height="178.63236113602392" width="146.85330942398298" class="icon-icon-0" data-fill-palette-color="accent" id="icon-0"><g fill="#412e27" data-fill-palette-color="accent"><path d="M293.31 243.883H275.182A4.235 4.235 0 0 0 271.797 240.499V238.3A3.09 3.09 0 0 0 268.711 235.214 0.768 0.768 0 1 0 268.711 236.75C269.565 236.75 270.262 237.446 270.262 238.301V240.5A4.23 4.23 0 0 0 266.877 243.884H245.122A4.23 4.23 0 0 0 241.738 240.5V238.3C241.738 237.446 242.434 236.75 243.29 236.75A0.768 0.768 0 0 0 243.29 235.214 3.09 3.09 0 0 0 240.203 238.299V240.499A4.23 4.23 0 0 0 236.819 243.883H218.69A0.77 0.77 0 0 0 217.922 244.651V259.532C217.922 262.782 220.267 265.493 223.353 266.067V301.554C223.353 301.978 223.697 302.322 224.121 302.322H287.88A0.77 0.77 0 0 0 288.649 301.554V266.067C291.734 265.493 294.078 262.784 294.079 259.535V244.651A0.77 0.77 0 0 0 293.31 243.883M271.026 241.963H271.034A2.69 2.69 0 0 1 273.604 243.883H268.455A2.69 2.69 0 0 1 271.026 241.963M240.97 241.963C242.185 241.963 243.213 242.775 243.545 243.883H238.396A2.69 2.69 0 0 1 240.97 241.963M287.112 300.787H224.888V266.18H246.654V270.528C246.654 275.681 250.846 279.874 256 279.874S265.346 275.682 265.346 270.528L265.345 270.524V266.18H287.112zM263.81 270.53C263.808 274.835 260.305 278.337 256 278.337 251.694 278.337 248.191 274.835 248.19 270.53V262.419H263.809V270.526zM292.542 259.53V259.532A5.12 5.12 0 0 1 287.48 264.644H265.344V261.651A0.77 0.77 0 0 0 264.576 260.883H247.421A0.77 0.77 0 0 0 246.653 261.651V264.644H224.518A5.12 5.12 0 0 1 219.456 259.532V245.418H292.541z" fill="#000000" data-fill-palette-color="accent"></path><path d="M256 266.903C254.001 266.903 252.376 268.529 252.376 270.527S254.001 274.151 256 274.151 259.624 272.525 259.624 270.527 257.998 266.903 256 266.903M256 272.615C254.848 272.615 253.912 271.678 253.912 270.527S254.849 268.438 256 268.438 258.088 269.376 258.088 270.527 257.152 272.615 256 272.615" fill="#000000" data-fill-palette-color="accent"></path><path d="M246.018 215.832C245.966 215.881 245.914 215.927 245.864 215.978A4.08 4.08 0 0 0 244.735 218.904L244.841 224.776 244.897 236.847 244.898 236.857 244.902 237.274V237.294L244.935 238.604C244.957 239.494 245.321 240.319 245.961 240.928A3.2 3.2 0 0 0 248.167 241.814L248.251 241.813A3.2 3.2 0 0 0 250.611 240.671 3.32 3.32 0 0 0 253.243 241.964L253.33 241.963A3.32 3.32 0 0 0 255.839 240.726 3.31 3.31 0 0 0 258.427 241.964L258.514 241.963A3.3 3.3 0 0 0 260.853 240.924C260.914 240.861 260.968 240.793 261.024 240.726A3.31 3.31 0 0 0 263.613 241.963L263.7 241.962A3.32 3.32 0 0 0 266.038 240.924 3.32 3.32 0 0 0 266.956 238.549L266.957 236.844 266.944 224.596A0.767 0.767 0 0 0 266.176 223.829H266.175A0.77 0.77 0 0 0 265.408 224.598L265.42 236.846 265.419 238.559V238.58C265.432 239.061 265.256 239.519 264.924 239.869S264.143 240.418 263.66 240.43C263.176 240.442 262.721 240.266 262.371 239.933S261.822 239.152 261.81 238.669L261.776 237.339 261.771 236.875V236.839C261.771 236.827 261.767 236.815 261.767 236.803A1 1 0 0 0 261.753 236.686L261.748 236.669A0.77 0.77 0 0 0 261.003 236.079H260.995C260.974 236.079 260.954 236.084 260.933 236.086 260.903 236.088 260.872 236.089 260.843 236.096 260.82 236.101 260.797 236.11 260.774 236.117S260.724 236.131 260.701 236.141C260.676 236.151 260.653 236.166 260.63 236.18 260.61 236.191 260.59 236.2 260.571 236.212 260.547 236.229 260.526 236.249 260.504 236.268 260.488 236.281 260.472 236.292 260.458 236.307 260.437 236.329 260.418 236.354 260.398 236.379 260.387 236.393 260.375 236.406 260.365 236.421 260.345 236.449 260.331 236.479 260.316 236.509 260.309 236.523 260.3 236.536 260.295 236.551 260.28 236.585 260.272 236.62 260.262 236.655 260.259 236.669 260.253 236.681 260.25 236.695 260.242 236.733 260.24 236.773 260.238 236.813 260.237 236.825 260.234 236.836 260.234 236.848V236.892L260.233 238.562V238.583C260.246 239.064 260.07 239.522 259.737 239.872 259.406 240.222 258.957 240.421 258.473 240.433 257.986 240.444 257.535 240.269 257.185 239.936S256.636 239.155 256.623 238.673L256.589 237.343 256.585 236.842C256.584 236.82 256.579 236.799 256.577 236.777 256.574 236.748 256.573 236.718 256.567 236.691 256.565 236.679 256.56 236.669 256.557 236.657A0.766 0.766 0 0 0 255.817 236.082H255.811C255.792 236.082 255.774 236.086 255.755 236.088 255.722 236.091 255.69 236.092 255.658 236.099 255.639 236.103 255.622 236.111 255.604 236.116 255.574 236.125 255.543 236.133 255.514 236.145 255.496 236.153 255.481 236.164 255.464 236.172 255.437 236.186 255.409 236.199 255.384 236.216 255.368 236.227 255.354 236.241 255.339 236.253 255.316 236.272 255.292 236.289 255.271 236.31 255.256 236.324 255.245 236.341 255.232 236.357 255.213 236.379 255.194 236.4 255.178 236.424 255.166 236.442 255.157 236.462 255.147 236.481 255.134 236.505 255.119 236.529 255.107 236.555 255.098 236.576 255.093 236.6 255.086 236.622 255.078 236.647 255.068 236.672 255.063 236.699 255.058 236.724 255.058 236.751 255.055 236.777 255.053 236.801 255.048 236.825 255.048 236.85L255.047 238.564V238.585C255.059 239.066 254.883 239.524 254.551 239.874 254.218 240.224 253.77 240.423 253.287 240.435 252.806 240.446 252.348 240.271 251.998 239.938S251.449 239.157 251.437 238.675L251.403 237.345 251.399 236.876V236.784A0.767 0.767 0 1 0 249.864 236.782V236.888L249.863 238.463V238.483C249.887 239.451 249.144 240.259 248.208 240.284A1.65 1.65 0 0 1 247.016 239.821 1.77 1.77 0 0 1 246.467 238.572L246.434 237.268 246.43 236.776V236.769L246.374 224.766 246.268 218.878A2.55 2.55 0 0 1 246.974 217.044 2.55 2.55 0 0 1 248.771 216.247L248.785 216.246 263.145 215.886 265.986 218.377C267.799 219.987 270.674 223.101 270.674 224.603V231.917A0.768 0.768 0 0 0 272.211 231.917V224.603C272.211 221.929 267.539 217.702 267.003 217.226L265.107 215.564A3.08 3.08 0 0 0 266.859 212.701C266.818 211.012 265.391 209.635 263.689 209.686L247.506 210.091A3.07 3.07 0 0 0 245.342 211.051 3.07 3.07 0 0 0 244.491 213.26C244.519 214.346 245.131 215.303 246.018 215.832M246.457 212.101A1.55 1.55 0 0 1 247.547 211.617L263.73 211.212H263.771C264.608 211.212 265.305 211.893 265.326 212.73 265.337 213.146 265.184 213.542 264.898 213.843A1.55 1.55 0 0 1 263.808 214.326L247.624 214.731H247.583A1.565 1.565 0 0 1 246.028 213.212C246.018 212.798 246.17 212.403 246.457 212.101" fill="#000000" data-fill-palette-color="accent"></path><path d="M230.018 296.445C230.018 296.869 230.362 297.213 230.786 297.213H281.215A0.768 0.768 0 0 0 281.215 295.677H230.786A0.77 0.77 0 0 0 230.018 296.445" fill="#000000" data-fill-palette-color="accent"></path></g></svg></g></svg></g></svg></g><defs></defs></svg><rect width="395.52" height="120.51359730469244" fill="none" stroke="none" visibility="hidden"></rect></g></svg></g></svg>